<?xml version="1.0" encoding="UTF-8"?>
<svg version="1.1" xmlns="http://www.w3.org/2000/svg" width="512" height="512">
<path d="M0 0 C1.27615236 -0.00467997 2.55230473 -0.00935994 3.86712837 -0.01418173 C7.36584283 -0.02656873 10.86430809 -0.0205784 14.3630228 -0.01122308 C18.15314382 -0.00438176 21.94322461 -0.01493877 25.7333374 -0.02316284 C33.14100962 -0.03644862 40.54859024 -0.03364556 47.95626593 -0.02492492 C53.98080028 -0.01812837 60.0053091 -0.01724014 66.02984619 -0.02049637 C66.88981992 -0.02095607 67.74979365 -0.02141577 68.63582718 -0.0218894 C70.38326948 -0.02284865 72.13071176 -0.02382129 73.87815404 -0.02480717 C90.2341822 -0.03334596 106.59015977 -0.02355071 122.94617963 -0.00740607 C136.95682084 0.00599573 150.96738747 0.00366721 164.97802734 -0.01016235 C181.27862461 -0.02624493 197.57917763 -0.03252213 213.87978172 -0.02332556 C215.62051772 -0.02236999 217.36125373 -0.02142688 219.10198975 -0.02049637 C219.95829235 -0.02003354 220.81459496 -0.01957072 221.69684613 -0.01909386 C227.70873593 -0.016512 233.72059748 -0.02085758 239.73248291 -0.02793503 C247.06671042 -0.03638005 254.40084171 -0.03400714 261.73505831 -0.0180928 C265.47153546 -0.01025025 269.20785262 -0.00704918 272.94432831 -0.01704025 C277.00696796 -0.02773855 281.06920948 -0.01489867 285.13183594 0 C286.87730556 -0.01003825 286.87730556 -0.01003825 288.65803719 -0.02027929 C306.30816413 0.10456129 323.52534267 5.47013963 336.78466797 17.50985718 C351.45840253 32.92371432 357.06738547 50.85938099 356.9468689 71.81503296 C356.95154887 73.09118532 356.95622884 74.36733768 356.96105063 75.68216133 C356.97343763 79.18087579 356.96744729 82.67934105 356.95809197 86.17805576 C356.95125066 89.96817678 356.96180766 93.75825757 356.97003174 97.54837036 C356.98331752 104.95604257 356.98051445 112.3636232 356.97179382 119.77129889 C356.96499727 125.79583324 356.96410904 131.82034206 356.96736526 137.84487915 C356.96782496 138.70485288 356.96828466 139.56482661 356.96875829 140.45086014 C356.96971754 142.19830244 356.97069018 143.94574472 356.97167607 145.693187 C356.98021486 162.04921515 356.9704196 178.40519273 356.95427497 194.76121259 C356.94087316 208.7718538 356.94320168 222.78242043 356.95703125 236.7930603 C356.97311382 253.09365757 356.97939102 269.39421059 356.97019446 285.69481468 C356.96923889 287.43555068 356.96829578 289.17628669 356.96736526 290.91702271 C356.96690244 291.77332531 356.96643961 292.62962792 356.96596276 293.51187909 C356.96338089 299.52376889 356.96772647 305.53563044 356.97480392 311.54751587 C356.98324894 318.88174338 356.98087604 326.21587467 356.96496169 333.55009127 C356.95711914 337.28656842 356.95391808 341.02288558 356.96390915 344.75936127 C356.97460745 348.82200092 356.96176757 352.88424244 356.9468689 356.9468689 C356.95356106 358.11051531 356.96025323 359.27416172 356.96714818 360.47307014 C356.88829953 371.6207976 355.20199 382.71968143 349.87841797 392.63095093 C349.52811523 393.30005493 349.1778125 393.96915894 348.81689453 394.65853882 C340.71251186 409.69010087 328.54471861 419.41255955 312.56591797 425.38095093 C303.39754362 427.92768755 294.61367776 428.81643221 285.13183594 428.76190186 C283.21760739 428.76892181 283.21760739 428.76892181 281.26470757 428.77608359 C277.7659931 428.78847059 274.26752785 428.78248025 270.76881313 428.77312493 C266.97869211 428.76628362 263.18861132 428.77684062 259.39849854 428.7850647 C251.99082632 428.79835047 244.5832457 428.79554741 237.17557001 428.78682677 C231.15103566 428.78003023 225.12652684 428.779142 219.10198975 428.78239822 C218.24201602 428.78285792 217.38204229 428.78331762 216.49600875 428.78379125 C214.74856646 428.7847505 213.00112418 428.78572314 211.2536819 428.78670903 C194.89765374 428.79524782 178.54167617 428.78545256 162.18565631 428.76930793 C148.17501509 428.75590612 134.16444847 428.75823464 120.15380859 428.77206421 C103.85321133 428.78814678 87.55265831 428.79442398 71.25205421 428.78522742 C69.51131821 428.78427185 67.77058221 428.78332873 66.02984619 428.78239822 C65.17354359 428.7819354 64.31724098 428.78147257 63.43498981 428.78099572 C57.42310001 428.77841385 51.41123845 428.78275943 45.39935303 428.78983688 C38.06512551 428.7982819 30.73099423 428.79590899 23.39677763 428.77999465 C19.66030048 428.7721521 15.92398332 428.76895103 12.18750763 428.77894211 C8.12486798 428.7896404 4.06262646 428.77680053 0 428.76190186 C-1.16364641 428.76859402 -2.32729282 428.77528619 -3.52620125 428.78218114 C-14.67392871 428.70333249 -25.77281254 427.01702296 -35.68408203 421.69345093 C-36.35318604 421.34314819 -37.02229004 420.99284546 -37.71166992 420.63192749 C-52.74323197 412.52754482 -62.46569065 400.35975157 -68.43408203 384.38095093 C-70.98081866 375.21257658 -71.86956331 366.42871072 -71.81503296 356.9468689 C-71.81971293 355.67071653 -71.8243929 354.39456417 -71.82921469 353.07974052 C-71.84160169 349.58102606 -71.83561135 346.0825608 -71.82625604 342.58384609 C-71.81941472 338.79372507 -71.82997173 335.00364428 -71.8381958 331.21353149 C-71.85148158 323.80585928 -71.84867852 316.39827866 -71.83995788 308.99060297 C-71.83316133 302.96606862 -71.8322731 296.9415598 -71.83552933 290.91702271 C-71.83598903 290.05704898 -71.83644873 289.19707525 -71.83692235 288.31104171 C-71.83788161 286.56359942 -71.83885425 284.81615713 -71.83984013 283.06871486 C-71.84837892 266.7126867 -71.83858367 250.35670913 -71.82243903 234.00068927 C-71.80903723 219.99004805 -71.81136574 205.97948142 -71.82519531 191.96884155 C-71.84127789 175.66824429 -71.84755509 159.36769127 -71.83835852 143.06708717 C-71.83740295 141.32635117 -71.83645984 139.58561516 -71.83552933 137.84487915 C-71.8350665 136.98857654 -71.83460367 136.13227394 -71.83412682 135.25002277 C-71.83154496 129.23813297 -71.83589053 123.22627141 -71.84296799 117.21438599 C-71.85141301 109.88015847 -71.8490401 102.54602719 -71.83312576 95.21181059 C-71.82528321 91.47533344 -71.82208214 87.73901628 -71.83207321 84.00254059 C-71.84277151 79.93990094 -71.82993163 75.87765942 -71.81503296 71.81503296 C-71.82172512 70.65138655 -71.82841729 69.48774014 -71.83531225 68.28883171 C-71.70684408 50.12583188 -66.0122775 32.92221155 -53.60205078 19.38876343 C-38.43499192 5.34215396 -20.42694467 -0.11747597 0 0 Z " fill="#91CAF8" transform="translate(113.43408203125,41.619049072265625)"/>
<path d="M0 0 C1.10794922 -0.01611328 2.21589844 -0.03222656 3.35742188 -0.04882812 C14.12296105 -0.05512008 23.82575203 1.9825143 33.375 7 C34.04909912 7.34667725 34.72319824 7.69335449 35.41772461 8.05053711 C48.03288967 14.70724783 57.0744694 23.42160289 65.92578125 34.421875 C68.30620482 37.30487572 70.77929782 40.06328833 73.3125 42.8125 C77.40601091 47.25977112 81.23692499 51.85967463 85.03125 56.5625 C88.17041357 60.34669718 91.50326831 63.93697885 94.83984375 67.546875 C97.3054613 70.30462733 99.59033699 73.15402466 101.875 76.0625 C112.74818564 89.39825381 127.36515009 96.23879633 144.21630859 98.11328125 C158.21332057 99.44353536 168.95268965 97.17090923 181.42407227 90.80664062 C182.84777778 90.08754471 184.27153739 89.36855587 185.69534302 88.6496582 C186.82130827 88.0791423 186.82130827 88.0791423 187.97002029 87.49710083 C192.03728039 85.44027205 196.11498485 83.40431664 200.19116211 81.36523438 C201.96635141 80.47612916 203.74149168 79.58692605 205.5165863 78.69763184 C212.34240337 75.27863267 219.16919927 71.86158947 225.99611568 68.44478607 C231.17070421 65.85485952 236.34490634 63.26416654 241.51831055 60.671875 C246.56088068 58.14518168 251.60440845 55.62040986 256.64862251 53.09700012 C258.56562645 52.13757285 260.48227764 51.17744043 262.39857292 50.21659851 C265.05638385 48.88409428 267.71541087 47.55404871 270.37475586 46.22460938 C271.56595535 45.62631317 271.56595535 45.62631317 272.78121948 45.01593018 C278.19844144 42.3125 278.19844144 42.3125 279.3125 42.3125 C279.38273232 64.23593373 279.43555767 86.15934879 279.46793652 108.08287239 C279.48337342 118.2634572 279.5044019 128.44397191 279.53881836 138.62451172 C279.5688183 147.50289455 279.58809806 156.38122658 279.59476548 165.25965869 C279.59865986 169.95616058 279.60774526 174.65251721 279.62969017 179.34897232 C279.6502231 183.7796174 279.65630024 188.21005893 279.65182304 192.64074707 C279.65264079 194.25711045 279.65850553 195.87348143 279.67011642 197.48980331 C279.75808653 210.38043755 278.84678077 222.97897195 272.625 234.5625 C272.27469727 235.231604 271.92439453 235.90070801 271.56347656 236.59008789 C263.45909389 251.62164994 251.29130064 261.34410862 235.3125 267.3125 C226.14412565 269.85923663 217.36025979 270.74798128 207.87841797 270.69345093 C205.96418942 270.70047089 205.96418942 270.70047089 204.0112896 270.70763266 C200.51257514 270.72001966 197.01410988 270.71402932 193.51539516 270.70467401 C189.72527415 270.69783269 185.93519335 270.70838969 182.14508057 270.71661377 C174.73740835 270.72989955 167.32982773 270.72709648 159.92215204 270.71837585 C153.89761769 270.7115793 147.87310887 270.71069107 141.84857178 270.7139473 C140.98859805 270.714407 140.12862432 270.71486669 139.24259079 270.71534032 C137.49514849 270.71629957 135.74770621 270.71727222 134.00026393 270.7182581 C117.64423577 270.72679689 101.2882582 270.71700163 84.93223834 270.700857 C70.92159712 270.68745519 56.9110305 270.68978371 42.90039062 270.70361328 C26.59979336 270.71969586 10.29924034 270.72597306 -6.00136375 270.71677649 C-7.74209976 270.71582092 -9.48283576 270.71487781 -11.22357178 270.7139473 C-12.07987438 270.71348447 -12.93617699 270.71302164 -13.81842816 270.71254479 C-19.83031796 270.70996293 -25.84217952 270.7143085 -31.85406494 270.72138596 C-39.18829245 270.72983098 -46.52242374 270.72745807 -53.85664034 270.71154372 C-57.59311749 270.70370117 -61.32943465 270.70050011 -65.06591034 270.71049118 C-69.12854999 270.72118948 -73.19079151 270.7083496 -77.25341797 270.69345093 C-78.41706438 270.70014309 -79.58071079 270.70683526 -80.77961922 270.71373022 C-91.92734668 270.63488156 -103.0262305 268.94857203 -112.9375 263.625 C-113.606604 263.27469727 -114.27570801 262.92439453 -114.96508789 262.56347656 C-131.04914116 253.89163512 -141.0157504 240.4337192 -146.73487854 223.14660645 C-147.77839197 218.9466784 -148.04546135 215.16499951 -148.12084961 210.86132812 C-148.14202347 210.04559326 -148.16319733 209.2298584 -148.18501282 208.3894043 C-148.38980627 199.88302973 -148.47570414 191.37357219 -148.55249023 182.86523438 C-148.59249629 178.84288159 -148.66895415 174.82379502 -148.77807617 170.80273438 C-148.91035609 165.91829236 -148.97692772 161.03688539 -148.9987812 156.15074158 C-149.01757368 154.30390601 -149.05842156 152.45714096 -149.12312126 150.61134338 C-149.47205242 140.1005148 -148.75005361 133.00357061 -141.48266602 125.00195312 C-139.8130909 123.28347344 -138.11224304 121.61339824 -136.3733387 119.96522522 C-133.58806875 117.23466393 -131.12348906 114.24066768 -128.625 111.25 C-127.63672153 110.0926345 -126.64729333 108.93624885 -125.65625 107.78125 C-125.16769531 107.21019531 -124.67914063 106.63914062 -124.17578125 106.05078125 C-122.67077951 104.29297082 -121.16382297 102.53685554 -119.65625 100.78125 C-114.81399817 95.14117582 -109.98374986 89.49177033 -105.1875 83.8125 C-99.8909411 77.54081051 -94.55145577 71.30658929 -89.20361328 65.07861328 C-86.69649018 62.15807729 -84.19209303 59.23520572 -81.6875 56.3125 C-78.67714854 52.79960536 -75.66620987 49.28722384 -72.65234375 45.77734375 C-72.15186523 45.19412354 -71.65138672 44.61090332 -71.13574219 44.01000977 C-70.13313357 42.84197397 -69.12988395 41.67448807 -68.12597656 40.50756836 C-65.64792706 37.62206252 -63.19072051 34.72250472 -60.76953125 31.7890625 C-45.06399572 12.80113183 -25.25141336 -0.07218815 0 0 Z " fill="#3096ED" transform="translate(190.6875,199.6875)"/>
<path d="M0 0 C0.93328125 0.24878906 1.8665625 0.49757813 2.828125 0.75390625 C19.7178612 6.39289882 31.60283832 18.69285362 40 34 C47.09925119 49.13576306 48.21012882 66.6465957 42.8125 82.484375 C35.45145767 100.80696949 22.96764576 113.94012742 4.875 121.8125 C-11.77840524 128.2781899 -28.63003705 127.59456505 -44.953125 120.46875 C-63.07346369 111.7338175 -74.46818931 97.58964832 -81.1171875 78.8515625 C-85.04509862 61.71474672 -82.24690514 41.95519015 -73 27 C-64.01678457 13.47910908 -50.59842587 3.08103296 -34.8984375 -1.34765625 C-23.42717797 -3.26719567 -11.23836396 -3.03025421 0 0 Z " fill="#3096ED" transform="translate(360,109)"/>
</svg>
